<svg xmlns="http://www.w3.org/2000/svg" viewBox="0 0 432 200">
  <defs>
    <style>
      .a, .b, .c {
        fill: none;
      }

      .a, .b {
        stroke: #000;
        stroke-miterlimit: 10;
        stroke-width: 8px;
      }

      .a {
        stroke-linecap: square;
      }
    </style>
  </defs>
  <title>⁯falka_3</title>
  <g>
    <polyline class="a" points="176 160 168 152 168 120 192 144 192 168 184 176 168 176 136 128 112 128 96 112 96 104"/>
    <polyline class="b" points="40 56 24 72 16 72"/>
    <polyline class="b" points="32 104 32 108 24 116"/>
    <line class="a" x1="32" y1="104" x2="32" y2="80"/>
    <polyline class="a" points="48 128 56 136 56 144"/>
    <line class="a" x1="40" y1="120" x2="48" y2="128"/>
    <polyline class="a" points="40 176 48 176 48 152"/>
    <polyline class="a" points="64 176 72 176 72 136 84 124"/>
    <polyline class="a" points="136 152 152 176 112 176"/>
    <polyline class="a" points="104 136 104 144 120 160"/>
    <polyline class="a" points="32 48 64 48 80 32 80 48 104 64 104 72 120 88 120 96 104 96 80 72 72 72"/>
    <line class="a" x1="88" y1="176" x2="96" y2="176"/>
    <line class="a" x1="84" y1="148" x2="100" y2="164"/>
    <polyline class="b" points="48 96 48 72 56 64"/>
    <polyline class="a" points="64 120 80 104 80 92"/>
    <polyline class="a" points="64 80 64 96 52 108"/>
    <polyline class="b" points="200 184 208 184 208 128 200 104 200 96"/>
    <polyline class="a" points="240 64 224 88 208 88 192 64"/>
    <polyline class="b" points="168 64 176 64 192 48 192 24 208 40 224 40 240 24 240 48 256 64 264 64"/>
    <polyline class="b" points="232 184 224 184 224 128 232 104 232 96"/>
    <polyline class="a" points="168 80 184 80 192 88"/>
    <line class="a" x1="176" y1="96" x2="192" y2="120"/>
    <polyline class="a" points="264 80 248 80 240 88"/>
    <line class="b" x1="216" y1="96" x2="216" y2="116"/>
    <line class="a" x1="256" y1="96" x2="240" y2="120"/>
    <polyline class="a" points="256 160 264 152 264 120 240 144 240 168 248 176 264 176 296 128 320 128 336 112 336 104"/>
    <polyline class="b" points="392 56 408 72 416 72"/>
    <polyline class="b" points="400 104 400 108 408 116"/>
    <line class="a" x1="400" y1="104" x2="400" y2="80"/>
    <polyline class="a" points="384 128 376 136 376 144"/>
    <line class="a" x1="392" y1="120" x2="384" y2="128"/>
    <polyline class="a" points="392 176 384 176 384 152"/>
    <polyline class="a" points="368 176 360 176 360 136 348 124"/>
    <polyline class="a" points="296 152 280 176 320 176"/>
    <polyline class="a" points="328 136 328 144 312 160"/>
    <polyline class="a" points="400 48 368 48 352 32 352 48 328 64 328 72 312 88 312 96 328 96 352 72 360 72"/>
    <line class="a" x1="344" y1="176" x2="336" y2="176"/>
    <line class="a" x1="348" y1="148" x2="332" y2="164"/>
    <polyline class="b" points="384 96 384 72 376 64"/>
    <polyline class="a" points="368 120 352 104 352 92"/>
    <polyline class="a" points="368 80 368 96 380 108"/>
    <rect class="c" width="432" height="200"/>
  </g>
</svg>
