<svg xmlns="http://www.w3.org/2000/svg" width="264" height="264" viewBox="0 0 264 264">
  <defs>
    <style>
      .cls-1, .cls-2, .cls-3 {
        fill: none;
      }

      .cls-1, .cls-2 {
        stroke: #212121;
        stroke-miterlimit: 10;
        stroke-width: 8px;
      }

      .cls-1 {
        stroke-linecap: square;
      }
    </style>
  </defs>
  <g id="Layer_2" data-name="Layer 2">
    <g id="Layer_1-2" data-name="Layer 1">
      <g>
        <polyline class="cls-1" points="72 260 72 224 64 224"/>
        <polyline class="cls-1" points="192 260 192 224 184 224"/>
        <polyline class="cls-1" points="168 260 168 224 160 224"/>
        <polyline class="cls-1" points="144 260 144 224 136 224"/>
        <polyline class="cls-1" points="120 260 120 224 112 224"/>
        <polyline class="cls-1" points="96 260 96 224 88 224"/>
        <polyline class="cls-1" points="48 192 216 192 216 200"/>
        <polyline class="cls-1" points="56 216 56 208 208 208"/>
        <polyline class="cls-1" points="200 160 192 152 192 120 216 144 216 168 208 176 192 176 160 128 136 128 120 112 120 104"/>
        <polyline class="cls-2" points="64 56 48 72 40 72"/>
        <polyline class="cls-2" points="56 104 56 108 48 116"/>
        <line class="cls-1" x1="56" y1="104" x2="56" y2="80"/>
        <polyline class="cls-1" points="72 128 80 136 80 144"/>
        <line class="cls-1" x1="64" y1="120" x2="72" y2="128"/>
        <polyline class="cls-1" points="64 176 72 176 72 152"/>
        <polyline class="cls-1" points="88 176 96 176 96 136 108 124"/>
        <polyline class="cls-1" points="160 152 176 176 136 176"/>
        <polyline class="cls-1" points="128 136 128 144 144 160"/>
        <polyline class="cls-1" points="56 48 88 48 104 32 104 48 128 64 128 72 144 88 144 96 128 96 104 72 96 72"/>
        <line class="cls-1" x1="112" y1="176" x2="120" y2="176"/>
        <line class="cls-1" x1="108" y1="148" x2="124" y2="164"/>
        <polyline class="cls-2" points="72 96 72 72 80 64"/>
        <polyline class="cls-1" points="88 120 104 104 104 92"/>
        <polyline class="cls-1" points="88 80 88 96 76 108"/>
        <polyline class="cls-2" points="176 72 168 72 160 64"/>
        <polyline class="cls-2" points="208 72 216 72 224 80"/>
        <polyline class="cls-2" points="192 56 192 48 200 40"/>
        <polyline class="cls-2" points="192 88 192 96 184 104"/>
        <polyline class="cls-2" points="200 64 208 56 220 56"/>
        <polyline class="cls-2" points="184 80 176 88 164 88"/>
        <polyline class="cls-2" points="200 80 208 88 208 100"/>
        <polyline class="cls-2" points="184 64 176 56 176 44"/>
        <rect class="cls-3" width="264" height="264"/>
      </g>
    </g>
  </g>
</svg>
